<svg xmlns="http://www.w3.org/2000/svg" width="190.23" height="36.296" viewBox="0 0 190.23 36.296">
  <g id="Group_155" data-name="Group 155" transform="translate(606 57)">
    <path id="Union_1_2_" d="M1008.97,145.512a18.148,18.148,0,1,1,36.3,0,18.443,18.443,0,0,1-.1,1.924h-1.588a1.675,1.675,0,0,1-.353.034h-16.64a1.958,1.958,0,1,1,0-3.916h14.471a14.113,14.113,0,1,0-.429,5.832h4.219a18.147,18.147,0,0,1-35.876-3.874Zm6.126,0a12.017,12.017,0,0,1,23.144-4.546h-3.017a9.308,9.308,0,1,0,.328,8.421h2.933a12.016,12.016,0,0,1-23.388-3.874Z" transform="translate(-1614.97 -184.36)" fill="#2e91ec"/>
    <path id="Path_7_5_" d="M1062.967,138h10.068v2.875h-6.749v3.841h6.138v2.875h-6.138v4.024h6.865v2.875H1062.96V138Zm21.887,0h3.153v10.642a7.746,7.746,0,0,1-.436,2.756,5.14,5.14,0,0,1-1.213,1.91,4.707,4.707,0,0,1-1.9,1.114,8.223,8.223,0,0,1-2.448.352q-6.451,0-6.451-5.723V138h3.32v10.409a6.544,6.544,0,0,0,.182,1.635,2.5,2.5,0,0,0,.567,1.085,2.153,2.153,0,0,0,.966.585,4.671,4.671,0,0,0,1.358.176,2.712,2.712,0,0,0,2.208-.825,4.119,4.119,0,0,0,.676-2.657Zm5.993.162c.371-.063.77-.12,1.2-.176s.857-.1,1.293-.127.843-.056,1.249-.07.777-.021,1.119-.021a13,13,0,0,1,2.339.211,6.479,6.479,0,0,1,2.063.733,4.038,4.038,0,0,1,1.46,1.424,4.36,4.36,0,0,1,.545,2.269,5.326,5.326,0,0,1-.966,3.3,5.014,5.014,0,0,1-2.608,1.776l1.191.733,3.879,6.272h-3.835l-3.872-6.449-1.736-.3v6.759h-3.327V138.159Zm5.1,2.474c-.341,0-.683.007-1.01.021a4.1,4.1,0,0,0-.777.092v4.778h1.409a3.6,3.6,0,0,0,2.208-.613,2.361,2.361,0,0,0,.828-2.023,2.089,2.089,0,0,0-.675-1.656A2.95,2.95,0,0,0,1095.947,140.633Zm8.18,5.6a9.584,9.584,0,0,1,1.867-6.343,6.6,6.6,0,0,1,5.339-2.227,7.684,7.684,0,0,1,3.182.613,5.991,5.991,0,0,1,2.259,1.755,7.561,7.561,0,0,1,1.337,2.685,12.939,12.939,0,0,1,.436,3.5,9.555,9.555,0,0,1-1.882,6.343,6.618,6.618,0,0,1-5.325,2.227,7.67,7.67,0,0,1-3.2-.613,5.821,5.821,0,0,1-2.245-1.755,7.627,7.627,0,0,1-1.322-2.706,12.5,12.5,0,0,1-.443-3.482Zm3.494,0a11.144,11.144,0,0,0,.218,2.3,5.956,5.956,0,0,0,.668,1.8,3.306,3.306,0,0,0,1.155,1.177,3.484,3.484,0,0,0,4.409-.916,7.557,7.557,0,0,0,.966-4.355,11.5,11.5,0,0,0-.2-2.234,6.147,6.147,0,0,0-.639-1.811,3.309,3.309,0,0,0-1.141-1.212,3.2,3.2,0,0,0-1.722-.437,3.145,3.145,0,0,0-2.739,1.374,7.53,7.53,0,0,0-.974,4.313Zm24.815,7.569a5.237,5.237,0,0,1-1.976.768,13.129,13.129,0,0,1-2.463.233,8.967,8.967,0,0,1-2.9-.458,6.114,6.114,0,0,1-2.412-1.487,7.235,7.235,0,0,1-1.664-2.657,11.184,11.184,0,0,1-.617-3.968,10.358,10.358,0,0,1,.69-4.059,7.386,7.386,0,0,1,1.809-2.636,6.777,6.777,0,0,1,2.463-1.438,8.982,8.982,0,0,1,2.7-.437,13.088,13.088,0,0,1,2.463.19,9.046,9.046,0,0,1,1.663.451l-.654,2.734a4.805,4.805,0,0,0-1.322-.381,12.612,12.612,0,0,0-1.86-.12,4.132,4.132,0,0,0-3.24,1.388,6.41,6.41,0,0,0-1.228,4.32,8.68,8.68,0,0,0,.291,2.326,4.979,4.979,0,0,0,.886,1.8,4.061,4.061,0,0,0,1.482,1.156,4.82,4.82,0,0,0,2.063.416,6.771,6.771,0,0,0,1.845-.211,5.422,5.422,0,0,0,1.307-.543Zm.726-7.569a9.632,9.632,0,0,1,1.853-6.343,6.6,6.6,0,0,1,5.339-2.227,7.682,7.682,0,0,1,3.182.613,5.987,5.987,0,0,1,2.259,1.755,7.582,7.582,0,0,1,1.344,2.685,12.948,12.948,0,0,1,.435,3.5,9.555,9.555,0,0,1-1.881,6.343,6.618,6.618,0,0,1-5.325,2.227,7.669,7.669,0,0,1-3.2-.613,5.82,5.82,0,0,1-2.245-1.755,7.624,7.624,0,0,1-1.322-2.706,13.116,13.116,0,0,1-.443-3.482Zm3.494,0a11.135,11.135,0,0,0,.218,2.3,5.959,5.959,0,0,0,.668,1.8,3.309,3.309,0,0,0,1.155,1.177,3.485,3.485,0,0,0,4.41-.916,7.56,7.56,0,0,0,.966-4.355,11.522,11.522,0,0,0-.2-2.234,6.137,6.137,0,0,0-.639-1.811,3.306,3.306,0,0,0-1.14-1.212,3.2,3.2,0,0,0-1.721-.437,3.144,3.144,0,0,0-2.739,1.374,7.519,7.519,0,0,0-.981,4.327h.007ZM1149.943,138c.341-.049.726-.085,1.155-.12s.864-.056,1.322-.071.894-.028,1.322-.035.813-.007,1.155,0a10.812,10.812,0,0,1,3.872.613,6.61,6.61,0,0,1,2.6,1.72,6.908,6.908,0,0,1,1.446,2.615,11.718,11.718,0,0,1,.465,3.369,11.843,11.843,0,0,1-.436,3.228A7.054,7.054,0,0,1,1158.7,154a10.235,10.235,0,0,1-4.111.733c-.262,0-.6-.007-1.032-.021s-.872-.028-1.337-.049l-1.322-.07a8.881,8.881,0,0,1-.944-.085V138Zm5.223,2.636c-.356,0-.719.007-1.082.021a6.33,6.33,0,0,0-.814.07v11.044a1.715,1.715,0,0,0,.327.035l.5.021.516.021h.363a5.052,5.052,0,0,0,2.339-.486,4.016,4.016,0,0,0,1.482-1.283,5.263,5.263,0,0,0,.777-1.846,10.572,10.572,0,0,0,.2-2.135,9.775,9.775,0,0,0-.2-1.945,4.776,4.776,0,0,0-.719-1.755,4.023,4.023,0,0,0-1.417-1.269A4.823,4.823,0,0,0,1155.166,140.633ZM1165.648,138h10.068v2.875h-6.749v3.841h6.138v2.875h-6.138v4.024h6.865v2.875h-10.192V138Zm12.669.162c.371-.063.77-.12,1.2-.176s.857-.1,1.293-.127.843-.056,1.25-.07.777-.021,1.119-.021a13.006,13.006,0,0,1,2.339.211,6.481,6.481,0,0,1,2.063.733,4.04,4.04,0,0,1,1.46,1.424,4.361,4.361,0,0,1,.545,2.269,5.3,5.3,0,0,1-.98,3.3,5.024,5.024,0,0,1-2.6,1.769l1.191.733,3.886,6.286h-3.835l-3.872-6.449-1.736-.3V154.5h-3.327V138.159Zm5.092,2.474c-.341,0-.682.007-1.01.021a4.1,4.1,0,0,0-.777.092v4.778h1.409a3.6,3.6,0,0,0,2.208-.613,2.362,2.362,0,0,0,.828-2.023,2.09,2.09,0,0,0-.676-1.656A2.927,2.927,0,0,0,1183.409,140.633Zm16.853,9.423a1.526,1.526,0,0,0-.567-1.226,6.488,6.488,0,0,0-1.431-.86c-.574-.261-1.2-.529-1.867-.8a9.622,9.622,0,0,1-1.867-1,5.291,5.291,0,0,1-1.431-1.5,4.15,4.15,0,0,1-.567-2.283,4.919,4.919,0,0,1,.414-2.086,3.914,3.914,0,0,1,1.177-1.473,5.287,5.287,0,0,1,1.809-.874,8.893,8.893,0,0,1,2.325-.282,14.211,14.211,0,0,1,2.789.254,7.248,7.248,0,0,1,2.157.719l-1.031,2.706a5.9,5.9,0,0,0-1.6-.6,9.389,9.389,0,0,0-2.3-.268,3,3,0,0,0-1.787.451,1.407,1.407,0,0,0-.618,1.2,1.463,1.463,0,0,0,.567,1.177,6.825,6.825,0,0,0,1.431.874c.574.268,1.2.543,1.867.825a10.114,10.114,0,0,1,1.867,1.022,5.236,5.236,0,0,1,1.431,1.487,3.992,3.992,0,0,1,.567,2.2,5.439,5.439,0,0,1-.451,2.269,4.245,4.245,0,0,1-1.264,1.586,5.317,5.317,0,0,1-1.969.937,9.6,9.6,0,0,1-2.535.3,13.966,13.966,0,0,1-3.2-.331,10.038,10.038,0,0,1-2.034-.655l1.068-2.756a6.6,6.6,0,0,0,.69.3,8.906,8.906,0,0,0,.959.3,10.086,10.086,0,0,0,1.133.233,7.154,7.154,0,0,0,1.228.092,4.349,4.349,0,0,0,2.266-.486A1.574,1.574,0,0,0,1200.263,150.055Z" transform="translate(-1619.37 -184.655)" fill="#2e91ec"/>
  </g>
</svg>
